<?xml version="1.0" encoding="UTF-8"?>
<!DOCTYPE svg PUBLIC "-//W3C//DTD SVG 1.1//EN" "http://www.w3.org/Graphics/SVG/1.1/DTD/svg11.dtd">
<svg xmlns="http://www.w3.org/2000/svg" version="1.1" width="500px" height="500px" style="shape-rendering:geometricPrecision; text-rendering:geometricPrecision; image-rendering:optimizeQuality; fill-rule:evenodd; clip-rule:evenodd" xmlns:xlink="http://www.w3.org/1999/xlink">
<g><path style="opacity:1" fill="#000000" d="M -0.5,-0.5 C 166.167,-0.5 332.833,-0.5 499.5,-0.5C 499.5,166.167 499.5,332.833 499.5,499.5C 332.833,499.5 166.167,499.5 -0.5,499.5C -0.5,332.833 -0.5,166.167 -0.5,-0.5 Z"/></g>
<g><path style="opacity:1" fill="#e5e5e5" d="M 274.5,71.5 C 271.831,69.1928 268.831,67.1928 265.5,65.5C 264.273,64.4096 263.44,63.0762 263,61.5C 262.617,62.056 262.117,62.3893 261.5,62.5C 261.821,57.0496 263.154,51.8829 265.5,47C 268.107,47.2264 270.44,47.5597 272.5,48C 273.595,49.6753 275.095,50.842 277,51.5C 277.483,52.448 277.649,53.448 277.5,54.5C 278.833,54.5 280.167,54.5 281.5,54.5C 281.5,55.5 281.5,56.5 281.5,57.5C 285.023,59.1265 287.69,61.7932 289.5,65.5C 284.836,68.3316 279.836,70.3316 274.5,71.5 Z"/></g>
<g><path style="opacity:1" fill="#373737" d="M 274.5,71.5 C 272.178,73.664 269.511,75.3307 266.5,76.5C 263.569,74.9092 260.902,72.9092 258.5,70.5C 258.892,68.8211 259.392,67.1545 260,65.5C 260.667,66.1667 261.333,66.8333 262,67.5C 262.54,65.8654 262.04,64.5321 260.5,63.5C 260.624,62.8933 260.957,62.56 261.5,62.5C 262.117,62.3893 262.617,62.056 263,61.5C 263.44,63.0762 264.273,64.4096 265.5,65.5C 268.831,67.1928 271.831,69.1928 274.5,71.5 Z"/></g>
<g><path style="opacity:1" fill="#eaeaea" d="M 258.5,70.5 C 260.902,72.9092 263.569,74.9092 266.5,76.5C 264.562,80.1692 261.562,81.3359 257.5,80C 254.69,76.4323 255.023,73.2657 258.5,70.5 Z"/></g>
<g><path style="opacity:1" fill="#556c37" d="M 227.5,84.5 C 230.355,83.1968 233.355,83.1968 236.5,84.5C 235.757,85.1818 235.091,85.8485 234.5,86.5C 232.412,85.0605 230.079,84.3939 227.5,84.5 Z"/></g>
<g><path style="opacity:1" fill="#9ccf5c" d="M 221.5,85.5 C 221.5,86.1667 221.167,86.5 220.5,86.5C 217.221,87.4922 213.888,87.6588 210.5,87C 214.026,85.6632 217.692,85.1632 221.5,85.5 Z"/></g>
<g><path style="opacity:1" fill="#ace365" d="M 136.5,141.5 C 135.603,140.402 134.77,140.402 134,141.5C 133.535,142.931 132.701,144.097 131.5,145C 132.094,145.464 132.761,145.631 133.5,145.5C 130.345,151.139 127.179,156.806 124,162.5C 123.667,161.5 123.333,160.5 123,159.5C 122.506,161.134 122.34,162.801 122.5,164.5C 121.833,163.5 121.167,162.5 120.5,161.5C 121.895,157.71 123.562,154.043 125.5,150.5C 127.237,148.36 128.404,146.027 129,143.5C 128.292,144.381 127.458,145.047 126.5,145.5C 128.108,141.706 130.608,139.372 134,138.5C 134.36,136.579 135.194,134.912 136.5,133.5C 134.12,131.397 134.787,130.23 138.5,130C 155.503,112.005 175.503,98.3381 198.5,89C 201.738,87.6323 205.072,87.2989 208.5,88C 179.139,98.8241 155.139,116.657 136.5,141.5 Z"/></g>
<g><path style="opacity:1" fill="#fcfcfc" d="M 227.5,84.5 C 230.079,84.3939 232.412,85.0605 234.5,86.5C 238.843,88.8499 240.843,92.5166 240.5,97.5C 239.783,103.368 238.283,109.035 236,114.5C 230.924,121.097 224.091,124.264 215.5,124C 206.773,137.126 199.106,150.793 192.5,165C 193.776,167.554 194.776,170.221 195.5,173C 194.329,179.851 195.496,186.351 199,192.5C 201.023,197.503 203.69,197.836 207,193.5C 207.356,190.271 209.19,188.771 212.5,189C 217.133,183.365 222.133,178.032 227.5,173C 229.217,171.441 231.217,170.608 233.5,170.5C 233.126,167.028 234.126,164.028 236.5,161.5C 229.762,162.195 225.262,159.195 223,152.5C 222.333,149.5 222.333,146.5 223,143.5C 226.827,137.501 231.994,133.168 238.5,130.5C 243.954,133.284 249.62,135.617 255.5,137.5C 258.05,141.519 258.883,145.852 258,150.5C 253.596,153.54 253.762,156.54 258.5,159.5C 264.05,155.753 270.216,154.087 277,154.5C 286.036,156.526 295.203,157.859 304.5,158.5C 304.5,161.5 304.5,164.5 304.5,167.5C 307.167,167.5 309.833,167.5 312.5,167.5C 315.85,167.335 319.183,167.502 322.5,168C 332.235,171.38 342.235,173.547 352.5,174.5C 356.386,173.055 360.386,172.555 364.5,173C 368.441,175.813 369.275,179.313 367,183.5C 364.802,185.621 362.302,187.288 359.5,188.5C 358.253,186.994 358.253,185.494 359.5,184C 355.956,184.953 352.623,184.286 349.5,182C 340.489,181.976 331.489,182.476 322.5,183.5C 316.477,184.019 310.81,182.852 305.5,180C 297.406,178.324 289.406,178.158 281.5,179.5C 283.333,183.167 285.167,186.833 287,190.5C 287.758,192.769 287.591,194.936 286.5,197C 290.603,200.014 292.269,203.847 291.5,208.5C 291.808,209.308 292.308,209.975 293,210.5C 293.391,216.863 294.058,223.197 295,229.5C 296.676,230.061 298.009,231.061 299,232.5C 299.333,238.167 299.667,243.833 300,249.5C 304.514,257.583 307.014,266.25 307.5,275.5C 307.5,283.167 307.5,290.833 307.5,298.5C 307.328,299.492 307.662,300.158 308.5,300.5C 307.602,306.027 305.269,310.86 301.5,315C 293.611,316.435 285.611,316.935 277.5,316.5C 275.833,316.5 274.167,316.5 272.5,316.5C 269.833,316.5 267.167,316.5 264.5,316.5C 257.119,316.314 249.786,316.814 242.5,318C 240.893,319.049 240.227,320.549 240.5,322.5C 237.794,322.887 235.461,323.887 233.5,325.5C 226.479,324.074 220.813,326.074 216.5,331.5C 215.167,331.5 213.833,331.5 212.5,331.5C 212.167,330.5 211.5,329.833 210.5,329.5C 210.5,329.167 210.5,328.833 210.5,328.5C 210.5,327.167 210.5,325.833 210.5,324.5C 210.5,324.167 210.5,323.833 210.5,323.5C 212.711,319.272 215.377,315.272 218.5,311.5C 221.171,309.066 224.004,306.733 227,304.5C 227.309,303.234 227.809,302.067 228.5,301C 221.389,298.556 214.722,295.223 208.5,291C 204.579,290.797 200.745,290.297 197,289.5C 194.772,291.968 191.938,293.135 188.5,293C 184.817,294.841 181.484,297.174 178.5,300C 175.829,300.833 173.496,300.333 171.5,298.5C 170.89,297.609 170.557,296.609 170.5,295.5C 170.698,286.278 175.031,279.778 183.5,276C 185.487,274.681 186.654,272.848 187,270.5C 189.074,268.548 191.241,266.715 193.5,265C 196.634,264.21 199.634,264.543 202.5,266C 203.873,269.873 205.539,273.539 207.5,277C 211.305,278.734 215.305,279.567 219.5,279.5C 227.252,277.129 234.252,278.463 240.5,283.5C 242.169,277.326 244.336,271.326 247,265.5C 247.667,260.167 247.667,254.833 247,249.5C 246,248.5 245,247.5 244,246.5C 241.809,239.773 239.309,233.106 236.5,226.5C 238.081,222.269 238.581,217.936 238,213.5C 235.828,212.415 233.828,211.081 232,209.5C 231.288,207.153 230.121,205.153 228.5,203.5C 227.713,204.242 227.047,205.075 226.5,206C 218.727,208.801 211.727,212.801 205.5,218C 201.409,219.227 197.909,218.394 195,215.5C 192.94,210.38 190.607,205.38 188,200.5C 187.773,195.103 187.106,189.769 186,184.5C 185.07,181.638 183.403,179.305 181,177.5C 180.333,175.167 180.333,172.833 181,170.5C 182.903,168.559 183.736,166.226 183.5,163.5C 186.388,163.78 187.888,162.447 188,159.5C 190.963,157.539 193.629,155.206 196,152.5C 201.587,142.994 206.92,133.327 212,123.5C 212.667,122.5 212.667,121.5 212,120.5C 210.287,119.122 208.953,117.455 208,115.5C 206.491,108.206 207.824,101.54 212,95.5C 214.529,92.1652 217.363,89.1652 220.5,86.5C 221.167,86.5 221.5,86.1667 221.5,85.5C 223.5,85.1667 225.5,84.8333 227.5,84.5 Z"/></g>
<g><path style="opacity:1" fill="#577333" d="M 136.5,141.5 C 135.488,142.872 134.488,144.205 133.5,145.5C 132.761,145.631 132.094,145.464 131.5,145C 132.701,144.097 133.535,142.931 134,141.5C 134.77,140.402 135.603,140.402 136.5,141.5 Z"/></g>
<g><path style="opacity:1" fill="#485d2c" d="M 125.5,150.5 C 125.062,149.494 124.396,149.494 123.5,150.5C 123.75,148.326 124.75,146.659 126.5,145.5C 127.458,145.047 128.292,144.381 129,143.5C 128.404,146.027 127.237,148.36 125.5,150.5 Z"/></g>
<g><path style="opacity:1" fill="#64843a" d="M 123.5,150.5 C 122.872,153.09 121.705,155.423 120,157.5C 120.085,154.664 121.251,152.331 123.5,150.5 Z"/></g>
<g><path style="opacity:1" fill="#b6f16c" d="M 120.5,161.5 C 121.167,162.5 121.833,163.5 122.5,164.5C 119.058,176.455 116.392,188.955 114.5,202C 115.412,206.446 115.745,210.946 115.5,215.5C 115.859,217.766 115.192,219.599 113.5,221C 114.352,222.728 115.352,222.895 116.5,221.5C 119.417,240.268 126.417,257.268 137.5,272.5C 139.273,275.06 141.273,277.393 143.5,279.5C 163.756,300.782 188.756,311.449 218.5,311.5C 215.377,315.272 212.711,319.272 210.5,323.5C 207.455,323.492 204.455,323.159 201.5,322.5C 178.267,318.22 158.933,307.22 143.5,289.5C 131.16,277.671 122.326,263.671 117,247.5C 119.501,252.506 122.501,257.173 126,261.5C 126.167,261.167 126.333,260.833 126.5,260.5C 123.532,255.036 120.366,249.703 117,244.5C 116.333,243.167 115.667,243.167 115,244.5C 108.434,230.439 106.434,215.772 109,200.5C 109.36,202.608 110.027,204.608 111,206.5C 112.847,201.87 112.68,197.203 110.5,192.5C 111.766,191.276 112.933,189.943 114,188.5C 113.818,178.894 115.985,169.894 120.5,161.5 Z"/></g>
<g><path style="opacity:1" fill="#4d4d4d" d="M 304.5,158.5 C 305.473,160.948 305.806,163.615 305.5,166.5C 308.059,166.198 310.393,166.532 312.5,167.5C 309.833,167.5 307.167,167.5 304.5,167.5C 304.5,164.5 304.5,161.5 304.5,158.5 Z"/></g>
<g><path style="opacity:1" fill="#8ab651" d="M 113.5,168.5 C 114.097,168.735 114.43,169.235 114.5,170C 112.612,175.054 111.112,180.22 110,185.5C 109.333,183.167 109.333,180.833 110,178.5C 111.46,175.252 112.626,171.919 113.5,168.5 Z"/></g>
<g><path style="opacity:1" fill="#29351a" d="M 110.5,212.5 C 112.273,213.314 112.773,214.648 112,216.5C 110.812,215.437 110.312,214.103 110.5,212.5 Z"/></g>
<g><path style="opacity:1" fill="#6a8c3e" d="M 115.5,215.5 C 116.461,217.265 116.795,219.265 116.5,221.5C 115.352,222.895 114.352,222.728 113.5,221C 115.192,219.599 115.859,217.766 115.5,215.5 Z"/></g>
<g><path style="opacity:1" fill="#baf66e" d="M 313.5,296.5 C 313.631,295.761 313.464,295.094 313,294.5C 311.226,295.965 309.392,297.298 307.5,298.5C 307.5,290.833 307.5,283.167 307.5,275.5C 313.185,269.305 318.352,262.638 323,255.5C 327.788,244.68 332.122,233.68 336,222.5C 341.204,221.773 346.204,222.773 351,225.5C 352.285,225.05 353.452,224.383 354.5,223.5C 349.922,252.791 336.255,277.124 313.5,296.5 Z"/></g>
<g><path style="opacity:1" fill="#19200f" d="M 112.5,226.5 C 114.273,227.314 114.773,228.648 114,230.5C 113.209,229.255 112.709,227.922 112.5,226.5 Z"/></g>
<g><path style="opacity:1" fill="#607f39" d="M 113.5,232.5 C 115.404,234.044 116.238,236.044 116,238.5C 114.337,236.842 113.504,234.842 113.5,232.5 Z"/></g>
<g><path style="opacity:1" fill="#161a0e" d="M 333.5,258.5 C 334.573,259.251 334.74,260.251 334,261.5C 328.796,273.178 320.963,282.345 310.5,289C 315.978,281.888 321.811,275.054 328,268.5C 330.114,265.268 331.947,261.935 333.5,258.5 Z"/></g>
<g><path style="opacity:1" fill="#090909" d="M 272.5,267.5 C 276.094,276.588 280.094,285.588 284.5,294.5C 279.942,294.72 275.942,296.22 272.5,299C 268.124,299.851 263.791,300.517 259.5,301C 263.681,293.771 265.848,285.938 266,277.5C 268.426,274.309 270.593,270.975 272.5,267.5 Z"/></g>
<g><path style="opacity:1" fill="#425627" d="M 128.5,267.5 C 130.446,268.254 131.279,269.588 131,271.5C 129.519,270.529 128.685,269.196 128.5,267.5 Z"/></g>
<g><path style="opacity:1" fill="#435828" d="M 333.5,267.5 C 334.629,269.666 334.129,271.666 332,273.5C 332.15,271.494 332.65,269.494 333.5,267.5 Z"/></g>
<g><path style="opacity:1" fill="#607f39" d="M 142.5,274.5 C 141.957,274.56 141.624,274.893 141.5,275.5C 142.193,276.518 142.859,277.518 143.5,278.5C 143.5,278.833 143.5,279.167 143.5,279.5C 141.273,277.393 139.273,275.06 137.5,272.5C 139.443,270.552 141.11,271.218 142.5,274.5 Z"/></g>
<g><path style="opacity:1" fill="#29341a" d="M 132.5,275.5 C 133.892,274.478 135.225,274.811 136.5,276.5C 136.167,276.833 135.833,277.167 135.5,277.5C 134.482,276.807 133.482,276.141 132.5,275.5 Z"/></g>
<g><path style="opacity:1" fill="#587433" d="M 137.5,281.5 C 137.56,280.957 137.893,280.624 138.5,280.5C 143.618,285.111 143.285,285.444 137.5,281.5 Z"/></g>
<g><path style="opacity:1" fill="#536e31" d="M 325.5,279.5 C 326.713,280.497 326.546,281.497 325,282.5C 324.53,281.423 324.697,280.423 325.5,279.5 Z"/></g>
<g><path style="opacity:1" fill="#455b28" d="M 319.5,285.5 C 320.713,286.497 320.546,287.497 319,288.5C 318.53,287.423 318.697,286.423 319.5,285.5 Z"/></g>
<g><path style="opacity:1" fill="#a4d961" d="M 142.5,274.5 C 150.678,283.007 160.011,290.007 170.5,295.5C 170.557,296.609 170.89,297.609 171.5,298.5C 161.35,293.022 152.016,286.356 143.5,278.5C 142.859,277.518 142.193,276.518 141.5,275.5C 141.624,274.893 141.957,274.56 142.5,274.5 Z"/></g>
<g><path style="opacity:1" fill="#2a351b" d="M 143.5,289.5 C 144.85,287.38 146.517,287.547 148.5,290C 146.803,290.384 145.137,290.218 143.5,289.5 Z"/></g>
<g><path style="opacity:1" fill="#070805" d="M 143.5,278.5 C 152.016,286.356 161.35,293.022 171.5,298.5C 173.496,300.333 175.829,300.833 178.5,300C 181.484,297.174 184.817,294.841 188.5,293C 191.938,293.135 194.772,291.968 197,289.5C 200.745,290.297 204.579,290.797 208.5,291C 214.722,295.223 221.389,298.556 228.5,301C 227.809,302.067 227.309,303.234 227,304.5C 224.004,306.733 221.171,309.066 218.5,311.5C 188.756,311.449 163.756,300.782 143.5,279.5C 143.5,279.167 143.5,278.833 143.5,278.5 Z"/></g>
<g><path style="opacity:1" fill="#405427" d="M 313.5,296.5 C 312.415,298.587 310.749,299.92 308.5,300.5C 307.662,300.158 307.328,299.492 307.5,298.5C 309.392,297.298 311.226,295.965 313,294.5C 313.464,295.094 313.631,295.761 313.5,296.5 Z"/></g>
<g><path style="opacity:1" fill="#bff778" d="M 264.5,316.5 C 256.836,319.416 248.836,321.416 240.5,322.5C 240.227,320.549 240.893,319.049 242.5,318C 249.786,316.814 257.119,316.314 264.5,316.5 Z"/></g>
<g><path style="opacity:1" fill="#171b10" d="M 264.5,316.5 C 267.167,316.5 269.833,316.5 272.5,316.5C 260.087,321.518 247.087,324.518 233.5,325.5C 235.461,323.887 237.794,322.887 240.5,322.5C 248.836,321.416 256.836,319.416 264.5,316.5 Z"/></g>
<g><path style="opacity:1" fill="#b3ec6a" d="M 272.5,316.5 C 274.167,316.5 275.833,316.5 277.5,316.5C 272.244,319.622 266.577,321.955 260.5,323.5C 256.02,324.698 251.687,326.031 247.5,327.5C 237.12,328.595 226.787,329.928 216.5,331.5C 220.813,326.074 226.479,324.074 233.5,325.5C 247.087,324.518 260.087,321.518 272.5,316.5 Z"/></g>
<g><path style="opacity:1" fill="#b1e86b" d="M 201.5,323.5 C 204.287,324.477 207.287,324.81 210.5,324.5C 210.5,325.833 210.5,327.167 210.5,328.5C 204.195,328.257 198.195,326.757 192.5,324C 195.482,323.502 198.482,323.335 201.5,323.5 Z"/></g>
<g><path style="opacity:1" fill="#4d652d" d="M 201.5,322.5 C 204.455,323.159 207.455,323.492 210.5,323.5C 210.5,323.833 210.5,324.167 210.5,324.5C 207.287,324.81 204.287,324.477 201.5,323.5C 201.5,323.167 201.5,322.833 201.5,322.5 Z"/></g>
<g><path style="opacity:1" fill="#a8de63" d="M 252.5,327.5 C 255.465,326.374 258.465,325.374 261.5,324.5C 264.58,324.252 267.58,323.586 270.5,322.5C 272.373,322.482 272.706,322.982 271.5,324C 265.31,325.956 258.977,327.122 252.5,327.5 Z"/></g>
<g><path style="opacity:1" fill="#63833a" d="M 260.5,323.5 C 260.5,324.167 260.833,324.5 261.5,324.5C 258.465,325.374 255.465,326.374 252.5,327.5C 250.833,328.833 249.167,328.833 247.5,327.5C 251.687,326.031 256.02,324.698 260.5,323.5 Z"/></g>
<g><path style="opacity:1" fill="#abe069" d="M 210.5,329.5 C 211.5,329.833 212.167,330.5 212.5,331.5C 209.15,331.665 205.817,331.498 202.5,331C 205.168,330.433 207.834,329.933 210.5,329.5 Z"/></g>
<g><path style="opacity:1" fill="#7bd455" d="M 278.5,381.5 C 285.175,381.334 291.842,381.5 298.5,382C 302.592,382.917 304.592,385.417 304.5,389.5C 304.617,392.597 303.617,395.264 301.5,397.5C 304.778,398.949 306.112,401.449 305.5,405C 305.485,409.694 303.152,412.694 298.5,414C 291.842,414.5 285.175,414.666 278.5,414.5C 278.5,403.5 278.5,392.5 278.5,381.5 Z"/></g>
<g><path style="opacity:1" fill="#78ce52" d="M 349.5,381.5 C 354.959,381.103 360.292,381.603 365.5,383C 364.565,385.381 364.232,387.881 364.5,390.5C 352.511,386.99 348.345,391.323 352,403.5C 352.833,404.333 353.667,405.167 354.5,406C 357.849,406.388 361.183,406.221 364.5,405.5C 364.664,408.187 364.497,410.854 364,413.5C 345.332,417.501 337.666,409.835 341,390.5C 343.362,386.973 346.196,383.973 349.5,381.5 Z"/></g>
<g><path style="opacity:1" fill="#7ad354" d="M 428.5,381.5 C 434.842,381.334 441.175,381.5 447.5,382C 453.688,383.866 456.188,388.033 455,394.5C 453.871,397.265 452.371,399.765 450.5,402C 451.953,405.072 453.787,407.905 456,410.5C 456.749,411.635 456.583,412.635 455.5,413.5C 452.177,414.757 448.844,414.757 445.5,413.5C 444.167,410.833 442.833,408.167 441.5,405.5C 440.675,404.614 439.675,404.281 438.5,404.5C 438.5,407.833 438.5,411.167 438.5,414.5C 435.167,414.5 431.833,414.5 428.5,414.5C 428.5,403.5 428.5,392.5 428.5,381.5 Z"/></g>
<g><path style="opacity:1" fill="#7ad254" d="M 51.5,381.5 C 55.8839,381.174 60.2172,381.508 64.5,382.5C 67.7982,393.026 70.4649,403.693 72.5,414.5C 69.1667,414.5 65.8333,414.5 62.5,414.5C 62.7394,412.533 62.4061,410.699 61.5,409C 58.5184,408.502 55.5184,408.335 52.5,408.5C 52.5,410.5 52.5,412.5 52.5,414.5C 48.8183,414.665 45.1516,414.499 41.5,414C 45.0639,403.246 48.3972,392.413 51.5,381.5 Z"/></g>
<g><path style="opacity:1" fill="#7dd756" d="M 74.5,381.5 C 82.8333,381.5 91.1667,381.5 99.5,381.5C 99.5,384.167 99.5,386.833 99.5,389.5C 96.8333,389.5 94.1667,389.5 91.5,389.5C 91.5,397.833 91.5,406.167 91.5,414.5C 88.5,414.5 85.5,414.5 82.5,414.5C 82.5,406.167 82.5,397.833 82.5,389.5C 79.8333,389.5 77.1667,389.5 74.5,389.5C 74.5,386.833 74.5,384.167 74.5,381.5 Z"/></g>
<g><path style="opacity:1" fill="#79d053" d="M 113.5,381.5 C 113.5,385.833 113.5,390.167 113.5,394.5C 117.042,394.813 120.375,394.479 123.5,393.5C 123.5,389.5 123.5,385.5 123.5,381.5C 126.833,381.5 130.167,381.5 133.5,381.5C 133.5,392.5 133.5,403.5 133.5,414.5C 130.167,414.5 126.833,414.5 123.5,414.5C 123.5,410.5 123.5,406.5 123.5,402.5C 120.167,402.5 116.833,402.5 113.5,402.5C 113.5,406.5 113.5,410.5 113.5,414.5C 110.167,414.5 106.833,414.5 103.5,414.5C 103.5,403.5 103.5,392.5 103.5,381.5C 106.833,381.5 110.167,381.5 113.5,381.5 Z"/></g>
<g><path style="opacity:1" fill="#7cd555" d="M 149.5,393.5 C 152.625,394.479 155.958,394.813 159.5,394.5C 159.5,396.833 159.5,399.167 159.5,401.5C 155.833,401.5 152.167,401.5 148.5,401.5C 148.216,403.415 148.549,405.081 149.5,406.5C 153.833,406.5 158.167,406.5 162.5,406.5C 162.5,409.167 162.5,411.833 162.5,414.5C 154.833,414.5 147.167,414.5 139.5,414.5C 139.5,403.5 139.5,392.5 139.5,381.5C 147.5,381.5 155.5,381.5 163.5,381.5C 163.5,384.167 163.5,386.833 163.5,389.5C 158.833,389.5 154.167,389.5 149.5,389.5C 149.5,390.833 149.5,392.167 149.5,393.5 Z"/></g>
<g><path style="opacity:1" fill="#7dd856" d="M 176.5,381.5 C 176.5,389.833 176.5,398.167 176.5,406.5C 179.833,406.5 183.167,406.5 186.5,406.5C 186.5,409.167 186.5,411.833 186.5,414.5C 180.167,414.5 173.833,414.5 167.5,414.5C 167.5,403.5 167.5,392.5 167.5,381.5C 170.5,381.5 173.5,381.5 176.5,381.5 Z"/></g>
<g><path style="opacity:1" fill="#7dd756" d="M 213.5,381.5 C 213.5,384.167 213.5,386.833 213.5,389.5C 209.167,389.5 204.833,389.5 200.5,389.5C 199.549,390.919 199.216,392.585 199.5,394.5C 203.167,394.5 206.833,394.5 210.5,394.5C 210.5,396.833 210.5,399.167 210.5,401.5C 206.833,401.5 203.167,401.5 199.5,401.5C 199.216,403.415 199.549,405.081 200.5,406.5C 204.833,406.5 209.167,406.5 213.5,406.5C 213.5,409.167 213.5,411.833 213.5,414.5C 205.833,414.5 198.167,414.5 190.5,414.5C 190.5,403.5 190.5,392.5 190.5,381.5C 198.167,381.5 205.833,381.5 213.5,381.5 Z"/></g>
<g><path style="opacity:1" fill="#7dd756" d="M 215.5,389.5 C 215.5,387.167 215.5,384.833 215.5,382.5C 223.65,381.507 231.983,381.174 240.5,381.5C 240.5,384.167 240.5,386.833 240.5,389.5C 237.833,389.5 235.167,389.5 232.5,389.5C 232.5,397.833 232.5,406.167 232.5,414.5C 229.5,414.5 226.5,414.5 223.5,414.5C 223.5,406.167 223.5,397.833 223.5,389.5C 220.833,389.5 218.167,389.5 215.5,389.5 Z"/></g>
<g><path style="opacity:1" fill="#7cd756" d="M 254.5,389.5 C 253.549,390.919 253.216,392.585 253.5,394.5C 257.167,394.5 260.833,394.5 264.5,394.5C 264.5,396.833 264.5,399.167 264.5,401.5C 260.833,401.5 257.167,401.5 253.5,401.5C 253.216,403.415 253.549,405.081 254.5,406.5C 258.833,406.5 263.167,406.5 267.5,406.5C 267.5,409.167 267.5,411.833 267.5,414.5C 259.833,414.5 252.167,414.5 244.5,414.5C 244.5,403.5 244.5,392.5 244.5,381.5C 252.5,381.5 260.5,381.5 268.5,381.5C 268.425,384.206 268.092,386.873 267.5,389.5C 263.167,389.5 258.833,389.5 254.5,389.5 Z"/></g>
<g><path style="opacity:1" fill="#7ad254" d="M 317.5,381.5 C 321.833,381.5 326.167,381.5 330.5,381.5C 333.32,392.449 335.987,403.449 338.5,414.5C 335.167,414.5 331.833,414.5 328.5,414.5C 328.739,412.533 328.406,410.699 327.5,409C 324.518,408.502 321.518,408.335 318.5,408.5C 318.167,410.5 317.833,412.5 317.5,414.5C 314.102,414.82 310.768,414.487 307.5,413.5C 310.839,402.804 314.172,392.137 317.5,381.5 Z"/></g>
<g><path style="opacity:1" fill="#79d154" d="M 368.5,381.5 C 371.833,381.5 375.167,381.5 378.5,381.5C 378.334,385.846 378.501,390.179 379,394.5C 381.877,390.582 384.377,386.415 386.5,382C 390.167,381.333 393.833,381.333 397.5,382C 393.99,386.685 390.99,391.685 388.5,397C 391.453,402.405 394.787,407.572 398.5,412.5C 394.626,414.485 390.626,414.818 386.5,413.5C 384,409.167 381.5,404.833 379,400.5C 378.501,405.155 378.334,409.821 378.5,414.5C 375.167,414.5 371.833,414.5 368.5,414.5C 368.5,403.5 368.5,392.5 368.5,381.5 Z"/></g>
<g><path style="opacity:1" fill="#77ce52" d="M 400.5,381.5 C 408.5,381.5 416.5,381.5 424.5,381.5C 424.5,384.167 424.5,386.833 424.5,389.5C 419.833,389.5 415.167,389.5 410.5,389.5C 410.5,390.833 410.5,392.167 410.5,393.5C 414.167,393.5 417.833,393.5 421.5,393.5C 421.777,396.448 421.444,399.281 420.5,402C 417.183,402.498 413.85,402.665 410.5,402.5C 410.5,403.833 410.5,405.167 410.5,406.5C 415.167,406.5 419.833,406.5 424.5,406.5C 424.5,409.167 424.5,411.833 424.5,414.5C 416.5,414.5 408.5,414.5 400.5,414.5C 400.5,403.5 400.5,392.5 400.5,381.5 Z"/></g>
<g><path style="opacity:1" fill="#325723" d="M 213.5,381.5 C 214.167,381.833 214.833,382.167 215.5,382.5C 215.5,384.833 215.5,387.167 215.5,389.5C 214.833,389.5 214.167,389.5 213.5,389.5C 213.5,386.833 213.5,384.167 213.5,381.5 Z"/></g>
<g><path style="opacity:1" fill="#050803" d="M 288.5,388.5 C 293.123,387.408 294.956,389.075 294,393.5C 293.617,394.056 293.117,394.389 292.5,394.5C 291.167,394.5 289.833,394.5 288.5,394.5C 288.5,392.5 288.5,390.5 288.5,388.5 Z"/></g>
<g><path style="opacity:1" fill="#060b03" d="M 438.5,388.5 C 444.661,388.943 445.995,391.777 442.5,397C 441.207,397.49 439.873,397.657 438.5,397.5C 438.5,394.5 438.5,391.5 438.5,388.5 Z"/></g>
<g><path style="opacity:1" fill="#141c0f" d="M 57.5,390.5 C 58.6641,394.011 59.6641,397.677 60.5,401.5C 58.396,401.799 56.396,401.466 54.5,400.5C 55.5059,397.137 56.5059,393.804 57.5,390.5 Z"/></g>
<g><path style="opacity:1" fill="#375f26" d="M 113.5,381.5 C 114.483,385.298 114.817,389.298 114.5,393.5C 117.5,393.5 120.5,393.5 123.5,393.5C 120.375,394.479 117.042,394.813 113.5,394.5C 113.5,390.167 113.5,385.833 113.5,381.5 Z"/></g>
<g><path style="opacity:1" fill="#406f2c" d="M 149.5,393.5 C 153.167,393.5 156.833,393.5 160.5,393.5C 160.806,396.385 160.473,399.052 159.5,401.5C 159.5,399.167 159.5,396.833 159.5,394.5C 155.958,394.813 152.625,394.479 149.5,393.5 Z"/></g>
<g><path style="opacity:1" fill="#467a30" d="M 200.5,389.5 C 200.5,390.833 200.5,392.167 200.5,393.5C 204.042,393.187 207.375,393.521 210.5,394.5C 206.833,394.5 203.167,394.5 199.5,394.5C 199.216,392.585 199.549,390.919 200.5,389.5 Z"/></g>
<g><path style="opacity:1" fill="#467a30" d="M 254.5,389.5 C 254.5,390.833 254.5,392.167 254.5,393.5C 258.042,393.187 261.375,393.521 264.5,394.5C 260.833,394.5 257.167,394.5 253.5,394.5C 253.216,392.585 253.549,390.919 254.5,389.5 Z"/></g>
<g><path style="opacity:1" fill="#131a0d" d="M 322.5,390.5 C 323.693,390.97 324.36,391.97 324.5,393.5C 325.095,396.14 325.428,398.807 325.5,401.5C 323.833,401.5 322.167,401.5 320.5,401.5C 321.326,397.864 321.992,394.197 322.5,390.5 Z"/></g>
<g><path style="opacity:1" fill="#3e6c2b" d="M 288.5,388.5 C 288.5,390.5 288.5,392.5 288.5,394.5C 289.833,394.5 291.167,394.5 292.5,394.5C 291.081,395.451 289.415,395.784 287.5,395.5C 287.198,392.941 287.532,390.607 288.5,388.5 Z"/></g>
<g><path style="opacity:1" fill="#3b6728" d="M 159.5,401.5 C 156.375,402.479 153.042,402.813 149.5,402.5C 149.5,403.833 149.5,405.167 149.5,406.5C 148.549,405.081 148.216,403.415 148.5,401.5C 152.167,401.5 155.833,401.5 159.5,401.5 Z"/></g>
<g><path style="opacity:1" fill="#11180c" d="M 287.5,401.5 C 289.92,401.292 292.253,401.626 294.5,402.5C 295.71,407.453 293.71,409.286 288.5,408C 287.577,405.959 287.244,403.792 287.5,401.5 Z"/></g>
<g><path style="opacity:1" fill="#365d25" d="M 210.5,401.5 C 207.375,402.479 204.042,402.813 200.5,402.5C 200.5,403.833 200.5,405.167 200.5,406.5C 199.549,405.081 199.216,403.415 199.5,401.5C 203.167,401.5 206.833,401.5 210.5,401.5 Z"/></g>
<g><path style="opacity:1" fill="#365d25" d="M 264.5,401.5 C 261.375,402.479 258.042,402.813 254.5,402.5C 254.5,403.833 254.5,405.167 254.5,406.5C 253.549,405.081 253.216,403.415 253.5,401.5C 257.167,401.5 260.833,401.5 264.5,401.5 Z"/></g>
<g><path style="opacity:1" fill="#2b4b1e" d="M 176.5,381.5 C 177.492,389.316 177.826,397.316 177.5,405.5C 180.713,405.19 183.713,405.523 186.5,406.5C 183.167,406.5 179.833,406.5 176.5,406.5C 176.5,398.167 176.5,389.833 176.5,381.5 Z"/></g>
</svg>
